<svg id="Layer_1" data-name="Layer 1" xmlns="http://www.w3.org/2000/svg" viewBox="0 0 48 44"><defs><style>.cls-1{fill:#29a361;}.cls-2{fill:#248f55;}.cls-3{fill:#34cb79;}.cls-4{fill:#2fb86e;}</style></defs><title>logo-favicon</title><path class="cls-1" d="M14.64,1.85l-4.57,8.74a1.19,1.19,0,0,0,.43,1.58l7.17,4.22A1.11,1.11,0,0,0,19.22,16L28,0H17.64A3.4,3.4,0,0,0,14.64,1.85Z" transform="translate(0)"/><path class="cls-2" d="M28,0,19.22,16a1.11,1.11,0,0,1-1.55.44l-1.87-1.1A1.12,1.12,0,0,0,17,14.71L25.05,0Z" transform="translate(0)"/><path class="cls-3" d="M37.55,8.46,34.4,2a3.4,3.4,0,0,0-3-1.95H22.23l7,12.32-.07,0a.57.57,0,0,0,0,1l6.05,2.41a.54.54,0,0,0,.7-.33l2.34-6.29A.56.56,0,0,0,37.55,8.46Z" transform="translate(0)"/><path class="cls-4" d="M38.28,9.18l-2.34,6.29a.54.54,0,0,1-.7.33l-1.83-.73,2.18-5.89a.57.57,0,0,0-.36-.75,1,1,0,0,1-.62-.52L31.72,2a3.4,3.4,0,0,0-3-1.95h2.68a3.4,3.4,0,0,1,3,2l3.15,6.51A.56.56,0,0,1,38.28,9.18Z" transform="translate(0)"/><path class="cls-1" d="M31.46,33.56a.48.48,0,0,0-.81-.23l-4.73,4.9a.5.5,0,0,0,0,.7l4.75,4.92a.48.48,0,0,0,.81-.22h7a3.4,3.4,0,0,0,3-1.94l4-8.13Z" transform="translate(0)"/><path class="cls-2" d="M37.35,33.56l2.26,3.55a2.73,2.73,0,0,1,.15,2.68l-.93,1.9a3.4,3.4,0,0,1-3,1.94h2.66a3.4,3.4,0,0,0,3-1.94l4-8.13Z" transform="translate(0)"/><path class="cls-1" d="M21.94,42.69V34a1.16,1.16,0,0,0-1.14-1.18H2.07L6.89,42a3.4,3.4,0,0,0,3,1.84H20.8A1.16,1.16,0,0,0,21.94,42.69Z" transform="translate(0)"/><path class="cls-2" d="M10,32.86l-4.16,7.2-3.78-7.2Z" transform="translate(0)"/><path class="cls-2" d="M21.93,34v8.65a1.15,1.15,0,0,1-1.13,1.18h-3A1.16,1.16,0,0,0,19,42.69V34a1.16,1.16,0,0,0-1.14-1.18h3A1.15,1.15,0,0,1,21.93,34Z" transform="translate(0)"/><path class="cls-3" d="M12.78,25.21l-.84-6.56a.57.57,0,0,0-.64-.51L5,19a.6.6,0,0,0-.33,1l-4,6a3.62,3.62,0,0,0-.19,3.7L4.78,38l7.09-12.27h0A.57.57,0,0,0,12.78,25.21Z" transform="translate(0)"/><path class="cls-4" d="M11.87,25.76h0L4.78,38,3.32,35.24l5.77-10L9.25,25a.39.39,0,0,1,.43-.18h0a.58.58,0,0,0,.66-.66L9.6,18.37l1.7-.23a.57.57,0,0,1,.64.51l.84,6.56A.57.57,0,0,1,11.87,25.76Z" transform="translate(0)"/><path class="cls-3" d="M47.4,25.56l-5.49-8.24a1.1,1.1,0,0,0-1.5-.35l-7.15,4.27a1.2,1.2,0,0,0-.38,1.67L43,38.72l4.68-9.56A3.62,3.62,0,0,0,47.4,25.56Z" transform="translate(0)"/><path class="cls-4" d="M47.63,29.16,43,38.71l-1.56-2.46,3.47-7.09a3.65,3.65,0,0,0-.24-3.6l-5.29-7.95L40.41,17a1.1,1.1,0,0,1,1.5.35l5.49,8.24A3.62,3.62,0,0,1,47.63,29.16Z" transform="translate(0)"/></svg>